<svg width="90" height="46" viewBox="0 0 90 46" fill="none" xmlns="http://www.w3.org/2000/svg">
<path d="M10.84 22.6C10.84 20.952 11.208 19.48 11.944 18.184C12.696 16.872 13.712 15.856 14.992 15.136C16.288 14.4 17.736 14.032 19.336 14.032C21.208 14.032 22.848 14.512 24.256 15.472C25.664 16.432 26.648 17.76 27.208 19.456H23.344C22.96 18.656 22.416 18.056 21.712 17.656C21.024 17.256 20.224 17.056 19.312 17.056C18.336 17.056 17.464 17.288 16.696 17.752C15.944 18.2 15.352 18.84 14.92 19.672C14.504 20.504 14.296 21.48 14.296 22.6C14.296 23.704 14.504 24.68 14.92 25.528C15.352 26.36 15.944 27.008 16.696 27.472C17.464 27.92 18.336 28.144 19.312 28.144C20.224 28.144 21.024 27.944 21.712 27.544C22.416 27.128 22.96 26.52 23.344 25.72H27.208C26.648 27.432 25.664 28.768 24.256 29.728C22.864 30.672 21.224 31.144 19.336 31.144C17.736 31.144 16.288 30.784 14.992 30.064C13.712 29.328 12.696 28.312 11.944 27.016C11.208 25.72 10.84 24.248 10.84 22.6ZM33.4379 13.24V31H30.0779V13.24H33.4379ZM42.6616 31.216C41.3816 31.216 40.2296 30.936 39.2056 30.376C38.1816 29.8 37.3736 28.992 36.7816 27.952C36.2056 26.912 35.9176 25.712 35.9176 24.352C35.9176 22.992 36.2136 21.792 36.8056 20.752C37.4136 19.712 38.2376 18.912 39.2776 18.352C40.3176 17.776 41.4776 17.488 42.7576 17.488C44.0376 17.488 45.1976 17.776 46.2376 18.352C47.2776 18.912 48.0936 19.712 48.6856 20.752C49.2936 21.792 49.5976 22.992 49.5976 24.352C49.5976 25.712 49.2856 26.912 48.6616 27.952C48.0536 28.992 47.2216 29.8 46.1656 30.376C45.1256 30.936 43.9576 31.216 42.6616 31.216ZM42.6616 28.288C43.2696 28.288 43.8376 28.144 44.3656 27.856C44.9096 27.552 45.3416 27.104 45.6616 26.512C45.9816 25.92 46.1416 25.2 46.1416 24.352C46.1416 23.088 45.8056 22.12 45.1336 21.448C44.4776 20.76 43.6696 20.416 42.7096 20.416C41.7496 20.416 40.9416 20.76 40.2856 21.448C39.6456 22.12 39.3256 23.088 39.3256 24.352C39.3256 25.616 39.6376 26.592 40.2616 27.28C40.9016 27.952 41.7016 28.288 42.6616 28.288ZM57.6063 27.904L60.9663 17.704H64.5423L59.6223 31H55.5423L50.6463 17.704H54.2463L57.6063 27.904ZM78.7894 24.064C78.7894 24.544 78.7574 24.976 78.6934 25.36H68.9734C69.0534 26.32 69.3894 27.072 69.9814 27.616C70.5734 28.16 71.3014 28.432 72.1654 28.432C73.4134 28.432 74.3014 27.896 74.8294 26.824H78.4534C78.0694 28.104 77.3334 29.16 76.2454 29.992C75.1574 30.808 73.8214 31.216 72.2374 31.216C70.9574 31.216 69.8054 30.936 68.7814 30.376C67.7734 29.8 66.9814 28.992 66.4054 27.952C65.8454 26.912 65.5654 25.712 65.5654 24.352C65.5654 22.976 65.8454 21.768 66.4054 20.728C66.9654 19.688 67.7494 18.888 68.7574 18.328C69.7654 17.768 70.9254 17.488 72.2374 17.488C73.5014 17.488 74.6294 17.76 75.6214 18.304C76.6294 18.848 77.4054 19.624 77.9494 20.632C78.5094 21.624 78.7894 22.768 78.7894 24.064ZM75.3094 23.104C75.2934 22.24 74.9814 21.552 74.3734 21.04C73.7654 20.512 73.0214 20.248 72.1414 20.248C71.3094 20.248 70.6054 20.504 70.0294 21.016C69.4694 21.512 69.1254 22.208 68.9974 23.104H75.3094Z" fill="white"/>
<rect x="1" y="1" width="88" height="44" rx="22" stroke="white" stroke-width="2"/>
</svg>
