<svg width="23" height="20" viewBox="0 0 23 20" fill="none" xmlns="http://www.w3.org/2000/svg">
<path d="M23 5.42977V15.8462C23 16.8152 22.6214 17.7446 21.9474 18.4298C21.2735 19.115 20.3594 19.5 19.4062 19.5H3.59375C2.64063 19.5 1.72654 19.115 1.05259 18.4298C0.378626 17.7446 0 16.8152 0 15.8462V5.42977L11.1349 12.0915C11.2455 12.1578 11.3716 12.1928 11.5 12.1928C11.6284 12.1928 11.7545 12.1578 11.8651 12.0915L23 5.42977ZM19.4062 0.5C20.2905 0.499859 21.1438 0.831194 21.8029 1.43062C22.4619 2.03005 22.8805 2.85548 22.9784 3.749L11.5 10.6138L0.0215627 3.749C0.11954 2.85548 0.538091 2.03005 1.19714 1.43062C1.85619 0.831194 2.70948 0.499859 3.59375 0.5H19.4062Z" fill="white"/>
</svg>
