<svg width="39" height="38" viewBox="0 0 39 38" fill="none" xmlns="http://www.w3.org/2000/svg">
<path d="M36.5494 14.6156H33.6264C33.6234 11.9034 32.5445 9.30306 30.6267 7.38519C28.7088 5.46733 26.1085 4.38851 23.3962 4.38542V1.4625C26.8835 1.46637 30.2268 2.85338 32.6926 5.31923C35.1585 7.78508 36.5455 11.1284 36.5494 14.6156ZM33.6264 37.999H33.378C4.66034 36.3475 0.582866 12.1165 0.0128966 4.72155C-0.0761849 3.56225 0.29888 2.41503 1.05559 1.53224C1.8123 0.649458 2.88869 0.103405 4.04798 0.0141922C4.16393 0.00542344 4.28036 0.00103897 4.39727 0.00103897H12.0992C12.6846 0.000472267 13.2566 0.175697 13.7413 0.504017C14.226 0.832337 14.6009 1.29862 14.8175 1.84248L17.0389 7.30833C17.2528 7.83964 17.3059 8.42208 17.1915 8.9833C17.0772 9.54451 16.8005 10.0598 16.3958 10.4651L13.2829 13.6072C13.7672 16.3713 15.0899 18.9196 17.0715 20.9065C19.0532 22.8934 21.598 24.2227 24.3608 24.7143L27.5322 21.5722C27.9436 21.172 28.4637 20.9017 29.0277 20.7952C29.5916 20.6886 30.1745 20.7505 30.7035 20.973L36.2132 23.1798C36.7489 23.4032 37.2059 23.781 37.526 24.2652C37.8462 24.7493 38.0149 25.3177 38.0108 25.8981V33.6146C38.0108 34.7774 37.5489 35.8926 36.7267 36.7148C35.9044 37.537 34.7893 37.999 33.6264 37.999ZM4.39727 2.92396C4.20535 2.92338 4.0152 2.96061 3.83766 3.03352C3.66013 3.10644 3.4987 3.2136 3.36258 3.34891C3.22646 3.48421 3.11833 3.645 3.04435 3.82209C2.97038 3.99918 2.93201 4.18911 2.93143 4.38103C2.93143 4.42195 2.93289 4.46239 2.93581 4.50233C3.60809 13.1542 7.91939 33.6146 33.5388 35.076C33.9256 35.0992 34.3058 34.9678 34.5957 34.7108C34.8857 34.4537 35.0617 34.092 35.085 33.7052L35.0879 33.6146V25.8981L29.5782 23.6913L25.3838 27.8564L24.6823 27.7688C11.9676 26.1758 10.2431 13.4611 10.2431 13.3295L10.1554 12.628L14.306 8.43366L12.1138 2.92396H4.39727Z" fill="#5A5A5A"/>
</svg>
