<svg width="115" height="34" viewBox="0 0 115 34" fill="none" xmlns="http://www.w3.org/2000/svg">
<rect width="114.06" height="34" rx="17" fill="#1A7AEC"/>
<path d="M19.864 23.112C19.1173 23.112 18.4453 22.984 17.848 22.728C17.2507 22.4613 16.7813 22.088 16.44 21.608C16.0987 21.128 15.928 20.568 15.928 19.928H17.88C17.9227 20.408 18.1093 20.8027 18.44 21.112C18.7813 21.4213 19.256 21.576 19.864 21.576C20.4933 21.576 20.984 21.4267 21.336 21.128C21.688 20.8187 21.864 20.424 21.864 19.944C21.864 19.5707 21.752 19.2667 21.528 19.032C21.3147 18.7973 21.0427 18.616 20.712 18.488C20.392 18.36 19.944 18.2213 19.368 18.072C18.6427 17.88 18.0507 17.688 17.592 17.496C17.144 17.2933 16.76 16.984 16.44 16.568C16.12 16.152 15.96 15.5973 15.96 14.904C15.96 14.264 16.12 13.704 16.44 13.224C16.76 12.744 17.208 12.376 17.784 12.12C18.36 11.864 19.0267 11.736 19.784 11.736C20.8613 11.736 21.7413 12.008 22.424 12.552C23.1173 13.0853 23.5013 13.8213 23.576 14.76H21.56C21.528 14.3547 21.336 14.008 20.984 13.72C20.632 13.432 20.168 13.288 19.592 13.288C19.0693 13.288 18.6427 13.4213 18.312 13.688C17.9813 13.9547 17.816 14.3387 17.816 14.84C17.816 15.1813 17.9173 15.464 18.12 15.688C18.3333 15.9013 18.6 16.072 18.92 16.2C19.24 16.328 19.6773 16.4667 20.232 16.616C20.968 16.8187 21.5653 17.0213 22.024 17.224C22.4933 17.4267 22.888 17.7413 23.208 18.168C23.5387 18.584 23.704 19.144 23.704 19.848C23.704 20.4133 23.5493 20.9467 23.24 21.448C22.9413 21.9493 22.4987 22.3547 21.912 22.664C21.336 22.9627 20.6533 23.112 19.864 23.112ZM33.9363 18.376C33.9363 18.7067 33.9149 19.0053 33.8723 19.272H27.1363C27.1896 19.976 27.4509 20.5413 27.9203 20.968C28.3896 21.3947 28.9656 21.608 29.6483 21.608C30.6296 21.608 31.3229 21.1973 31.7283 20.376H33.6962C33.4296 21.1867 32.9443 21.8533 32.2403 22.376C31.5469 22.888 30.6829 23.144 29.6483 23.144C28.8056 23.144 28.0483 22.9573 27.3763 22.584C26.7149 22.2 26.1923 21.6667 25.8083 20.984C25.4349 20.2907 25.2483 19.4907 25.2483 18.584C25.2483 17.6773 25.4296 16.8827 25.7923 16.2C26.1656 15.5067 26.6829 14.9733 27.3443 14.6C28.0163 14.2267 28.7843 14.04 29.6483 14.04C30.4803 14.04 31.2216 14.2213 31.8723 14.584C32.5229 14.9467 33.0296 15.4587 33.3923 16.12C33.7549 16.7707 33.9363 17.5227 33.9363 18.376ZM32.0323 17.8C32.0216 17.128 31.7816 16.5893 31.3123 16.184C30.8429 15.7787 30.2616 15.576 29.5683 15.576C28.9389 15.576 28.4003 15.7787 27.9523 16.184C27.5043 16.5787 27.2376 17.1173 27.1523 17.8H32.0323ZM35.1233 18.552C35.1233 17.6667 35.3046 16.8827 35.6673 16.2C36.0406 15.5173 36.5419 14.9893 37.1713 14.616C37.8113 14.232 38.5153 14.04 39.2833 14.04C39.9766 14.04 40.5793 14.1787 41.0913 14.456C41.6139 14.7227 42.0299 15.0587 42.3393 15.464V14.184H44.1793V23H42.3393V21.688C42.0299 22.104 41.6086 22.4507 41.0753 22.728C40.5419 23.0053 39.9339 23.144 39.2513 23.144C38.4939 23.144 37.8006 22.952 37.1713 22.568C36.5419 22.1733 36.0406 21.6293 35.6673 20.936C35.3046 20.232 35.1233 19.4373 35.1233 18.552ZM42.3393 18.584C42.3393 17.976 42.2113 17.448 41.9553 17C41.7099 16.552 41.3846 16.2107 40.9793 15.976C40.5739 15.7413 40.1366 15.624 39.6673 15.624C39.1979 15.624 38.7606 15.7413 38.3553 15.976C37.9499 16.2 37.6193 16.536 37.3633 16.984C37.1179 17.4213 36.9953 17.944 36.9953 18.552C36.9953 19.16 37.1179 19.6933 37.3633 20.152C37.6193 20.6107 37.9499 20.9627 38.3553 21.208C38.7713 21.4427 39.2086 21.56 39.6673 21.56C40.1366 21.56 40.5739 21.4427 40.9793 21.208C41.3846 20.9733 41.7099 20.632 41.9553 20.184C42.2113 19.7253 42.3393 19.192 42.3393 18.584ZM48.399 15.464C48.6657 15.016 49.0177 14.6693 49.455 14.424C49.903 14.168 50.431 14.04 51.039 14.04V15.928H50.575C49.8603 15.928 49.3163 16.1093 48.943 16.472C48.5803 16.8347 48.399 17.464 48.399 18.36V23H46.575V14.184H48.399V15.464ZM52.1076 18.584C52.1076 17.6773 52.289 16.8827 52.6516 16.2C53.025 15.5067 53.537 14.9733 54.1876 14.6C54.8383 14.2267 55.585 14.04 56.4276 14.04C57.4943 14.04 58.3743 14.296 59.0676 14.808C59.7716 15.3093 60.2463 16.0293 60.4916 16.968H58.5236C58.3636 16.5307 58.1076 16.1893 57.7556 15.944C57.4036 15.6987 56.961 15.576 56.4276 15.576C55.681 15.576 55.0836 15.8427 54.6356 16.376C54.1983 16.8987 53.9796 17.6347 53.9796 18.584C53.9796 19.5333 54.1983 20.2747 54.6356 20.808C55.0836 21.3413 55.681 21.608 56.4276 21.608C57.4836 21.608 58.1823 21.144 58.5236 20.216H60.4916C60.2356 21.112 59.7556 21.8267 59.0516 22.36C58.3476 22.8827 57.473 23.144 56.4276 23.144C55.585 23.144 54.8383 22.9573 54.1876 22.584C53.537 22.2 53.025 21.6667 52.6516 20.984C52.289 20.2907 52.1076 19.4907 52.1076 18.584ZM66.8694 14.04C67.5414 14.04 68.1387 14.184 68.6614 14.472C69.1947 14.76 69.6107 15.1867 69.9094 15.752C70.2187 16.3173 70.3734 17 70.3734 17.8V23H68.5654V18.072C68.5654 17.2827 68.368 16.68 67.9734 16.264C67.5787 15.8373 67.04 15.624 66.3574 15.624C65.6747 15.624 65.1307 15.8373 64.7254 16.264C64.3307 16.68 64.1334 17.2827 64.1334 18.072V23H62.3094V11.16H64.1334V15.208C64.4427 14.8347 64.832 14.5467 65.3014 14.344C65.7814 14.1413 66.304 14.04 66.8694 14.04Z" fill="white"/>
<path d="M97.023 22.446C96.5546 21.9974 96.0988 21.5359 95.656 21.062C95.284 20.684 95.06 20.409 95.06 20.409L92.26 19.072C93.381 17.8006 93.9997 16.164 94 14.469C94 10.61 90.86 7.46899 87 7.46899C83.14 7.46899 80 10.61 80 14.469C80 18.328 83.14 21.469 87 21.469C88.763 21.469 90.37 20.809 91.603 19.73L92.94 22.53C92.94 22.53 93.215 22.754 93.593 23.126C93.98 23.489 94.489 23.98 94.977 24.493L96.335 25.885L96.939 26.531L99.06 24.41L98.414 23.806C98.035 23.434 97.529 22.94 97.023 22.446ZM87 19.469C84.243 19.469 82 17.226 82 14.469C82 11.712 84.243 9.46899 87 9.46899C89.757 9.46899 92 11.712 92 14.469C92 17.226 89.757 19.469 87 19.469Z" fill="white"/>
</svg>
