<svg width="20" height="20" viewBox="0 0 20 20" fill="none" xmlns="http://www.w3.org/2000/svg">
<path d="M17.023 15.446C16.5546 14.9974 16.0988 14.5359 15.656 14.062C15.284 13.684 15.06 13.409 15.06 13.409L12.26 12.072C13.381 10.8006 13.9997 9.16398 14 7.46899C14 3.60999 10.86 0.468994 7 0.468994C3.14 0.468994 0 3.60999 0 7.46899C0 11.328 3.14 14.469 7 14.469C8.763 14.469 10.37 13.809 11.603 12.73L12.94 15.53C12.94 15.53 13.215 15.754 13.593 16.126C13.98 16.489 14.489 16.98 14.977 17.493L16.335 18.885L16.939 19.531L19.06 17.41L18.414 16.806C18.035 16.434 17.529 15.94 17.023 15.446ZM7 12.469C4.243 12.469 2 10.226 2 7.46899C2 4.71199 4.243 2.46899 7 2.46899C9.757 2.46899 12 4.71199 12 7.46899C12 10.226 9.757 12.469 7 12.469Z" fill="white"/>
</svg>
