<svg width="49" height="32" viewBox="0 0 49 32" fill="none" xmlns="http://www.w3.org/2000/svg">
<path d="M0 0V2.90909H29.0938V24.7273H19.6674C18.9844 22.2269 16.6171 20.3636 13.7812 20.3636C10.9454 20.3636 8.57806 22.2269 7.89513 24.7273H6.125V17.4545H3.0625V27.6364H7.89513C8.57806 30.1367 10.9454 32 13.7812 32C16.6171 32 18.9844 30.1367 19.6674 27.6364H32.3951C33.0781 30.1367 35.4454 32 38.2812 32C41.1171 32 43.4844 30.1367 44.1674 27.6364H49V15.7731L48.9035 15.5447L45.841 6.81746L45.5087 5.81818H32.1562V0H0ZM1.53125 5.81818V8.72727H15.3125V5.81818H1.53125ZM32.1562 8.72727H43.3053L45.9375 16.1818V24.7273H44.1674C43.4844 22.2269 41.1171 20.3636 38.2812 20.3636C35.4454 20.3636 33.0781 22.2269 32.3951 24.7273H32.1562V8.72727ZM3.0625 11.6364V14.5455H12.25V11.6364H3.0625ZM13.7812 23.2727C15.4917 23.2727 16.8438 24.5571 16.8438 26.1818C16.8438 27.8065 15.4917 29.0909 13.7812 29.0909C12.0708 29.0909 10.7188 27.8065 10.7188 26.1818C10.7188 24.5571 12.0708 23.2727 13.7812 23.2727ZM38.2812 23.2727C39.9917 23.2727 41.3438 24.5571 41.3438 26.1818C41.3438 27.8065 39.9917 29.0909 38.2812 29.0909C36.5708 29.0909 35.2188 27.8065 35.2188 26.1818C35.2188 24.5571 36.5708 23.2727 38.2812 23.2727Z" fill="#5A5A5A"/>
</svg>
