<svg width="28" height="31" viewBox="0 0 28 31" fill="none" xmlns="http://www.w3.org/2000/svg">
<path d="M18.9601 18.4062C17.2304 18.4062 16.3987 19.375 13.5601 19.375C10.7214 19.375 9.89577 18.4062 8.16006 18.4062C3.68818 18.4062 0.0600586 22.0512 0.0600586 26.5437V28.0938C0.0600586 29.6982 1.35582 31 2.95292 31H24.1672C25.7643 31 27.0601 29.6982 27.0601 28.0938V26.5437C27.0601 22.0512 23.4319 18.4062 18.9601 18.4062ZM24.1672 28.0938H2.95292V26.5437C2.95292 23.6617 5.29131 21.3125 8.16006 21.3125C9.03997 21.3125 10.4683 22.2812 13.5601 22.2812C16.6759 22.2812 18.0741 21.3125 18.9601 21.3125C21.8288 21.3125 24.1672 23.6617 24.1672 26.5437V28.0938ZM13.5601 17.4375C18.3514 17.4375 22.2386 13.5322 22.2386 8.71875C22.2386 3.90527 18.3514 0 13.5601 0C8.76876 0 4.88149 3.90527 4.88149 8.71875C4.88149 13.5322 8.76876 17.4375 13.5601 17.4375ZM13.5601 2.90625C16.7482 2.90625 19.3458 5.51582 19.3458 8.71875C19.3458 11.9217 16.7482 14.5312 13.5601 14.5312C10.3719 14.5312 7.77434 11.9217 7.77434 8.71875C7.77434 5.51582 10.3719 2.90625 13.5601 2.90625Z" fill="white"/>
</svg>
