<svg width="28" height="22" viewBox="0 0 28 22" fill="none" xmlns="http://www.w3.org/2000/svg">
<path d="M25.4074 3.38462H21L19.95 0.64066C19.8775 0.452898 19.7445 0.290599 19.5694 0.175932C19.3942 0.0612657 19.1853 -0.000176066 18.9713 3.78965e-07H9.0287C8.5912 3.78965e-07 8.19907 0.256868 8.05324 0.64066L7 3.38462H2.59259C1.16019 3.38462 0 4.46648 0 5.8022V19.5824C0 20.9181 1.16019 22 2.59259 22H25.4074C26.8398 22 28 20.9181 28 19.5824V5.8022C28 4.46648 26.8398 3.38462 25.4074 3.38462ZM25.6667 19.5824C25.6667 19.7154 25.55 19.8242 25.4074 19.8242H2.59259C2.45 19.8242 2.33333 19.7154 2.33333 19.5824V5.8022C2.33333 5.66923 2.45 5.56044 2.59259 5.56044H8.64306L9.19722 4.11593L9.93935 2.17582H18.0574L18.7995 4.11593L19.3537 5.56044H25.4074C25.55 5.56044 25.6667 5.66923 25.6667 5.8022V19.5824ZM14 7.49451C11.1352 7.49451 8.81481 9.65824 8.81481 12.3297C8.81481 15.0011 11.1352 17.1648 14 17.1648C16.8648 17.1648 19.1852 15.0011 19.1852 12.3297C19.1852 9.65824 16.8648 7.49451 14 7.49451ZM14 15.2308C12.2824 15.2308 10.8889 13.9313 10.8889 12.3297C10.8889 10.728 12.2824 9.42857 14 9.42857C15.7176 9.42857 17.1111 10.728 17.1111 12.3297C17.1111 13.9313 15.7176 15.2308 14 15.2308Z" fill="#5A5A5A"/>
</svg>
