<svg width="27" height="27" viewBox="0 0 27 27" fill="none" xmlns="http://www.w3.org/2000/svg">
<path d="M13.5 3.53683C10.6357 3.53683 7.88864 4.69021 5.86325 6.74324C3.83785 8.79627 2.7 11.5808 2.7 14.4842H6.75C7.46608 14.4842 8.15284 14.7725 8.65919 15.2858C9.16554 15.7991 9.45 16.4952 9.45 17.221V24.0631C9.45 24.789 9.16554 25.4851 8.65919 25.9984C8.15284 26.5116 7.46608 26.8 6.75 26.8H2.7C1.98392 26.8 1.29716 26.5116 0.790812 25.9984C0.284463 25.4851 0 24.789 0 24.0631V14.4842C0 6.92641 6.04395 0.799988 13.5 0.799988C20.9561 0.799988 27 6.92641 27 14.4842V24.0631C27 24.789 26.7155 25.4851 26.2092 25.9984C25.7028 26.5116 25.0161 26.8 24.3 26.8H20.25C19.5339 26.8 18.8472 26.5116 18.3408 25.9984C17.8345 25.4851 17.55 24.789 17.55 24.0631V17.221C17.55 16.4952 17.8345 15.7991 18.3408 15.2858C18.8472 14.7725 19.5339 14.4842 20.25 14.4842H24.3C24.3 11.5808 23.1621 8.79627 21.1368 6.74324C19.1114 4.69021 16.3643 3.53683 13.5 3.53683ZM2.7 17.221V24.0631H6.75V17.221H2.7ZM20.25 17.221V24.0631H24.3V17.221H20.25Z" fill="#5A5A5A"/>
</svg>
