<svg width="21" height="33" viewBox="0 0 21 33" fill="none" xmlns="http://www.w3.org/2000/svg">
<path d="M10.5 6.1875C10.7785 6.1875 11.0455 6.29615 11.2425 6.48955C11.4394 6.68294 11.55 6.94525 11.55 7.21875V11.3438C11.55 11.6173 11.4394 11.8796 11.2425 12.073C11.0455 12.2664 10.7785 12.375 10.5 12.375C10.2215 12.375 9.95445 12.2664 9.75754 12.073C9.56062 11.8796 9.45 11.6173 9.45 11.3438V7.21875C9.45 6.94525 9.56062 6.68294 9.75754 6.48955C9.95445 6.29615 10.2215 6.1875 10.5 6.1875V6.1875ZM18.9 22.6875C18.9 24.8755 18.015 26.974 16.4397 28.5211C14.8644 30.0683 12.7278 30.9375 10.5 30.9375C8.27218 30.9375 6.13561 30.0683 4.5603 28.5211C2.985 26.974 2.1 24.8755 2.1 22.6875V10.3125C2.1 8.12446 2.985 6.02604 4.5603 4.47887C6.13561 2.93169 8.27218 2.0625 10.5 2.0625C12.7278 2.0625 14.8644 2.93169 16.4397 4.47887C18.015 6.02604 18.9 8.12446 18.9 10.3125V22.6875ZM10.5 0C7.71523 0 5.04451 1.08649 3.07538 3.02046C1.10625 4.95443 0 7.57745 0 10.3125V22.6875C0 25.4225 1.10625 28.0456 3.07538 29.9795C5.04451 31.9135 7.71523 33 10.5 33C13.2848 33 15.9555 31.9135 17.9246 29.9795C19.8938 28.0456 21 25.4225 21 22.6875V10.3125C21 7.57745 19.8938 4.95443 17.9246 3.02046C15.9555 1.08649 13.2848 0 10.5 0V0Z" fill="#5A5A5A"/>
</svg>
