<svg width="23" height="24" viewBox="0 0 23 24" fill="none" xmlns="http://www.w3.org/2000/svg">
<path d="M22.1153 9.34649H20.3461C20.3442 7.7047 19.6912 6.13069 18.5302 4.96977C17.3693 3.80885 15.7953 3.15582 14.1535 3.15395V1.38466C16.2644 1.387 18.2882 2.22658 19.7808 3.71921C21.2734 5.21183 22.113 7.2356 22.1153 9.34649ZM15.3328 16.8501L17.3144 14.8685C17.5796 14.6031 17.9169 14.4215 18.2844 14.346C18.6519 14.2705 19.0334 14.3045 19.3818 14.4438L21.7951 15.4099C22.1508 15.5522 22.4557 15.7978 22.6705 16.1151C22.8852 16.4323 23 16.8067 23 17.1898V21.5785C23.0006 21.8394 22.948 22.0976 22.8454 22.3374C22.7427 22.5772 22.5922 22.7935 22.4031 22.9732C22.2139 23.1528 21.9901 23.2919 21.7453 23.382C21.5005 23.4722 21.2399 23.5114 20.9795 23.4973C4.06322 22.4446 0.646715 8.11683 0.0124224 2.63024C-0.0182982 2.36201 0.00811659 2.09032 0.0899297 1.83303C0.171743 1.57574 0.3071 1.33869 0.487099 1.13746C0.667097 0.93624 0.887658 0.775404 1.13427 0.665535C1.38089 0.555666 1.64797 0.499253 1.91795 0.500007H6.22884C6.61196 0.499995 6.98629 0.614774 7.30354 0.829538C7.6208 1.0443 7.86643 1.3492 8.00875 1.7049L8.97391 4.11822C9.11319 4.46657 9.1472 4.84813 9.07172 5.21563C8.99624 5.58312 8.81459 5.92039 8.54927 6.18564L6.56766 8.16725C6.56766 8.16725 7.6664 15.892 15.3328 16.8501Z" fill="white"/>
</svg>
