<svg width="30" height="20" viewBox="0 0 30 20" fill="none" xmlns="http://www.w3.org/2000/svg">
<path d="M8.93143 0.565988C9.12755 0.39455 9.38067 0.29991 9.64286 0.299988H11.7857C12.0699 0.299988 12.3424 0.411198 12.5433 0.609153C12.7443 0.807108 12.8571 1.07559 12.8571 1.35554C12.8571 1.63549 12.7443 1.90398 12.5433 2.10193C12.3424 2.29989 12.0699 2.4111 11.7857 2.4111H10.05L5.22429 6.63332H9.64286C10.4953 6.63332 11.3129 6.96695 11.9157 7.56082C12.5185 8.15468 12.8571 8.96014 12.8571 9.79999V10.8555H17.1429V9.79999C17.1429 8.96014 17.4815 8.15468 18.0843 7.56082C18.6871 6.96695 19.5047 6.63332 20.3571 6.63332H24.7757L19.95 2.4111H18.2143C17.9301 2.4111 17.6576 2.29989 17.4567 2.10193C17.2557 1.90398 17.1429 1.63549 17.1429 1.35554C17.1429 1.07559 17.2557 0.807108 17.4567 0.609153C17.6576 0.411198 17.9301 0.299988 18.2143 0.299988H20.3571C20.6193 0.29991 20.8725 0.39455 21.0686 0.565988L28.83 7.35532C29.196 7.65252 29.4907 8.02584 29.693 8.4485C29.8953 8.87117 30.0001 9.3327 30 9.79999V14.0222C30 14.7153 29.8614 15.4016 29.5922 16.0419C29.323 16.6823 28.9284 17.2641 28.4309 17.7542C27.9335 18.2442 27.3429 18.633 26.6929 18.8982C26.043 19.1635 25.3464 19.3 24.6429 19.3H22.5C21.0792 19.3 19.7166 18.7439 18.7119 17.7542C17.7073 16.7644 17.1429 15.422 17.1429 14.0222V12.9667H12.8571V14.0222C12.8571 14.7153 12.7186 15.4016 12.4494 16.0419C12.1801 16.6823 11.7855 17.2641 11.2881 17.7542C10.7906 18.2442 10.2 18.633 9.55009 18.8982C8.90013 19.1635 8.20351 19.3 7.5 19.3H5.35714C3.93634 19.3 2.57373 18.7439 1.56907 17.7542C0.564412 16.7644 1.55371e-07 15.422 1.55371e-07 14.0222V9.79999C-0.000147312 9.3327 0.104681 8.87117 0.306965 8.4485C0.509249 8.02584 0.803975 7.65252 1.17 7.35532L8.93143 0.565988ZM27.4457 8.96821C27.2574 8.82284 27.025 8.74403 26.7857 8.74443H20.3571C20.073 8.74443 19.8005 8.85564 19.5995 9.0536C19.3986 9.25155 19.2857 9.52004 19.2857 9.79999V14.0222C19.2857 14.8621 19.6244 15.6675 20.2272 16.2614C20.83 16.8552 21.6475 17.1889 22.5 17.1889H24.6429C25.4953 17.1889 26.3129 16.8552 26.9157 16.2614C27.5185 15.6675 27.8571 14.8621 27.8571 14.0222V9.79999C27.857 9.64939 27.824 9.50058 27.7604 9.36363C27.6968 9.22669 27.6041 9.10479 27.4886 9.00621L27.4457 8.96821ZM2.50714 9.0041C2.3922 9.1034 2.30021 9.22582 2.23737 9.36311C2.17453 9.50041 2.1423 9.64938 2.14286 9.79999V14.0222C2.14286 14.8621 2.4815 15.6675 3.0843 16.2614C3.6871 16.8552 4.50466 17.1889 5.35714 17.1889H7.5C8.35248 17.1889 9.17005 16.8552 9.77284 16.2614C10.3756 15.6675 10.7143 14.8621 10.7143 14.0222V9.79999C10.7143 9.52004 10.6014 9.25155 10.4005 9.0536C10.1995 8.85564 9.92702 8.74443 9.64286 8.74443H3.21429C2.97504 8.74403 2.7426 8.82284 2.55429 8.96821L2.51143 9.0041H2.50714Z" fill="#5A5A5A"/>
</svg>
