<svg width="29" height="25" viewBox="0 0 29 25" fill="none" xmlns="http://www.w3.org/2000/svg">
<path d="M15.0916 0.205264C14.9201 0.0722415 14.7088 0 14.4913 0C14.2738 0 14.0625 0.0722415 13.891 0.205264L0 10.9795L1.20157 12.4911L2.9 11.1738V23.0769C2.90102 23.5866 3.10504 24.0752 3.46739 24.4356C3.82974 24.796 4.3209 24.999 4.83333 25H24.1667C24.6791 24.999 25.1703 24.796 25.5326 24.4356C25.895 24.0752 26.099 23.5866 26.1 23.0769V11.1824L27.7984 12.4997L29 10.9882L15.0916 0.205264ZM16.4333 23.0769H12.5667V15.3844H16.4333V23.0769ZM18.3667 23.0769V15.3844C18.3662 14.8745 18.1623 14.3857 17.7998 14.0251C17.4374 13.6646 16.9459 13.4618 16.4333 13.4613H12.5667C12.0541 13.4618 11.5626 13.6646 11.2002 14.0251C10.8377 14.3857 10.6338 14.8745 10.6333 15.3844V23.0769H4.83333V9.67469L14.5 2.18415L24.1667 9.6843V23.0769H18.3667Z" fill="#5A5A5A"/>
</svg>
