<svg width="36" height="34" viewBox="0 0 36 34" fill="none" xmlns="http://www.w3.org/2000/svg">
<path d="M32.4434 15.842C32.4884 16.2618 32.5109 16.7009 32.5109 17.1643C32.5109 20.3111 31.3809 22.4268 30.2859 23.7515C29.8438 24.2894 29.3378 24.7748 28.7784 25.1975C28.5893 25.3389 28.3923 25.4701 28.1884 25.5906L28.1659 25.6027C27.9677 25.7068 27.8022 25.861 27.6869 26.0489C27.5715 26.2368 27.5107 26.4515 27.5109 26.6702V29.8607C27.5109 30.1824 27.3792 30.491 27.1447 30.7185C26.9103 30.946 26.5924 31.0738 26.2609 31.0738H25.0109C25.0109 30.4303 24.7475 29.8132 24.2786 29.3582C23.8098 28.9032 23.1739 28.6476 22.5109 28.6476H17.5109C16.8478 28.6476 16.2119 28.9032 15.7431 29.3582C15.2743 29.8132 15.0109 30.4303 15.0109 31.0738H13.7609C13.4293 31.0738 13.1114 30.946 12.877 30.7185C12.6426 30.491 12.5109 30.1824 12.5109 29.8607V28.3977C12.5112 28.0967 12.3962 27.8064 12.1883 27.5831C11.9804 27.3598 11.6944 27.2195 11.3859 27.1894C10.9897 27.106 10.6017 26.9899 10.2259 26.8425C9.22901 26.4521 8.32472 25.8684 7.56836 25.1271C6.46086 24.0354 5.78336 22.599 5.41836 21.6019C5.06086 20.6095 4.24086 19.7118 3.06836 19.3916C2.90792 19.3473 2.76671 19.2535 2.66611 19.1243C2.56552 18.9952 2.51102 18.8377 2.51086 18.6759V16.7494C2.51073 16.5966 2.56189 16.4478 2.65661 16.3257C2.75134 16.2036 2.88447 16.1147 3.03586 16.0725C4.24836 15.7353 5.05836 14.7842 5.40086 13.7798C5.68086 12.9549 6.17586 11.897 6.98086 11.1037C7.90308 10.2101 8.9686 9.46777 10.1359 8.90551C10.2334 8.85698 10.3109 8.82302 10.3609 8.80118L10.4109 8.77692L10.4209 8.77449C10.6459 8.68089 10.8376 8.52522 10.9723 8.32682C11.1069 8.12842 11.1786 7.89601 11.1784 7.65843V3.59696C11.7344 4.05725 12.3188 4.48424 12.9284 4.87557C13.7209 5.38022 14.6459 5.85819 15.6134 6.11294C15.8984 5.31714 16.2884 4.56016 16.7734 3.86141H16.7584C16.0609 3.79105 15.2084 3.4247 14.2959 2.84483C13.4597 2.29923 12.6734 1.68474 11.9459 1.00819C11.674 0.760711 11.3342 0.59471 10.9674 0.530149C10.6007 0.465587 10.2225 0.505212 9.87836 0.64426C9.52539 0.780013 9.22241 1.01529 9.00852 1.31973C8.79463 1.62418 8.67963 1.98384 8.67836 2.35231V6.90631C7.40371 7.57309 6.23359 8.41293 5.20336 9.40045C4.01086 10.5699 3.36336 12.0305 3.02836 13.0179C2.88836 13.4231 2.60836 13.6682 2.34836 13.7385C1.67494 13.9256 1.08258 14.3204 0.660857 14.8632C0.239132 15.4059 0.0109683 16.0672 0.0108643 16.747V18.6759C0.0108643 20.0952 0.983364 21.3398 2.38836 21.7256C2.54824 21.7796 2.69272 21.8695 2.81001 21.988C2.92731 22.1065 3.01412 22.2502 3.06336 22.4074C3.47836 23.5525 4.30836 25.3746 5.78836 26.8303C6.96659 27.9862 8.41522 28.8485 10.0109 29.3439V29.8607C10.0109 30.8259 10.406 31.7516 11.1092 32.4341C11.8125 33.1166 12.7663 33.5 13.7609 33.5H15.0109C15.6739 33.5 16.3098 33.2444 16.7786 32.7894C17.2475 32.3344 17.5109 31.7173 17.5109 31.0738H22.5109C22.5109 31.7173 22.7743 32.3344 23.2431 32.7894C23.7119 33.2444 24.3478 33.5 25.0109 33.5H26.2609C27.2554 33.5 28.2093 33.1166 28.9125 32.4341C29.6158 31.7516 30.0109 30.8259 30.0109 29.8607V27.3301C30.8442 26.7423 31.5925 26.0487 32.2359 25.2679C33.6409 23.5695 35.0109 20.9298 35.0109 17.1643C35.0109 15.5873 34.7809 14.1752 34.3359 12.9136C33.8902 13.9916 33.2493 14.9834 32.4434 15.842V15.842ZM31.9884 6.50841C32.6133 7.97202 32.7293 9.5935 32.3187 11.1269C31.9081 12.6602 30.9934 14.0218 29.7134 15.005C28.6709 15.8032 27.2434 15.7426 26.0184 15.2476L20.0434 12.8481C18.8184 12.3556 17.7634 11.4191 17.6084 10.1404C17.4008 8.39651 17.8494 6.6385 18.8717 5.19017C19.894 3.74185 21.4211 2.70074 23.1717 2.25857C24.9223 1.81641 26.7786 2.00297 28.3987 2.78389C30.0188 3.56482 31.2936 4.88752 31.9884 6.50841V6.50841ZM28.1634 13.1004C28.8476 12.5757 29.3786 11.8865 29.7037 11.1011C30.0288 10.3158 30.1368 9.4616 30.0168 8.6233C29.8968 7.785 29.553 6.9917 29.0197 6.32209C28.4863 5.65248 27.7818 5.12982 26.9761 4.80595C26.1704 4.48208 25.2914 4.36826 24.4264 4.47576C23.5614 4.58327 22.7403 4.90837 22.0447 5.41883C21.3491 5.92928 20.8031 6.60736 20.4608 7.38579C20.1185 8.16423 19.9918 9.01599 20.0934 9.85658C20.0984 9.90511 20.1184 9.99487 20.2584 10.138C20.4702 10.3419 20.7229 10.5013 21.0009 10.6063L26.9759 13.0082C27.2488 13.1265 27.5445 13.1869 27.8434 13.1853C28.0434 13.1805 28.1259 13.1295 28.1634 13.1004V13.1004ZM11.8859 15.3034C12.3831 15.3034 12.8601 15.1117 13.2117 14.7705C13.5633 14.4292 13.7609 13.9664 13.7609 13.4838C13.7609 13.0012 13.5633 12.5383 13.2117 12.1971C12.8601 11.8558 12.3831 11.6641 11.8859 11.6641C11.3886 11.6641 10.9117 11.8558 10.56 12.1971C10.2084 12.5383 10.0109 13.0012 10.0109 13.4838C10.0109 13.9664 10.2084 14.4292 10.56 14.7705C10.9117 15.1117 11.3886 15.3034 11.8859 15.3034Z" fill="#5A5A5A"/>
</svg>
