<svg width="28" height="22" viewBox="0 0 28 22" fill="none" xmlns="http://www.w3.org/2000/svg">
<path d="M25.9 0H2.1C1.54305 0 1.0089 0.217298 0.615076 0.604092C0.221249 0.990886 0 1.51549 0 2.0625L0 15.8125C0 16.3595 0.221249 16.8841 0.615076 17.2709C1.0089 17.6577 1.54305 17.875 2.1 17.875H12.6V19.25H4.9C4.71435 19.25 4.5363 19.3224 4.40503 19.4514C4.27375 19.5803 4.2 19.7552 4.2 19.9375V21.3125C4.2 21.4948 4.27375 21.6697 4.40503 21.7986C4.5363 21.9276 4.71435 22 4.9 22H23.1C23.2857 22 23.4637 21.9276 23.595 21.7986C23.7262 21.6697 23.8 21.4948 23.8 21.3125V19.9375C23.8 19.7552 23.7262 19.5803 23.595 19.4514C23.4637 19.3224 23.2857 19.25 23.1 19.25H15.4V17.875H25.9C26.457 17.875 26.9911 17.6577 27.3849 17.2709C27.7787 16.8841 28 16.3595 28 15.8125V2.0625C28 1.51549 27.7787 0.990886 27.3849 0.604092C26.9911 0.217298 26.457 0 25.9 0V0ZM25.2 15.125H2.8V2.75H25.2V15.125Z" fill="#5A5A5A"/>
</svg>
