<svg width="27" height="37" viewBox="0 0 27 37" fill="none" xmlns="http://www.w3.org/2000/svg">
<path d="M13.8572 28.9143C16.6458 28.9143 19.3201 27.8065 21.2919 25.8347C23.2637 23.8629 24.3715 21.1886 24.3715 18.4C24.3715 15.6114 23.2637 12.9371 21.2919 10.9653C19.3201 8.99346 16.6458 7.88571 13.8572 7.88571C11.0687 7.88571 8.3943 8.99346 6.42249 10.9653C4.45068 12.9371 3.34293 15.6114 3.34293 18.4C3.34293 21.1886 4.45068 23.8629 6.42249 25.8347C8.3943 27.8065 11.0687 28.9143 13.8572 28.9143ZM13.8572 31.5429C10.3715 31.5429 7.02857 30.1582 4.56381 27.6934C2.09905 25.2286 0.714355 21.8857 0.714355 18.4C0.714355 14.9143 2.09905 11.5714 4.56381 9.1066C7.02857 6.64183 10.3715 5.25714 13.8572 5.25714C17.3429 5.25714 20.6859 6.64183 23.1506 9.1066C25.6154 11.5714 27.0001 14.9143 27.0001 18.4C27.0001 21.8857 25.6154 25.2286 23.1506 27.6934C20.6859 30.1582 17.3429 31.5429 13.8572 31.5429Z" fill="#5A5A5A"/>
<path d="M12.5429 11.8286C12.8915 11.8286 13.2258 11.9671 13.4723 12.2136C13.7187 12.46 13.8572 12.7943 13.8572 13.1429V19.7143C13.8572 20.0629 13.7187 20.3972 13.4723 20.6437C13.2258 20.8901 12.8915 21.0286 12.5429 21.0286C12.1944 21.0286 11.8601 20.8901 11.6136 20.6437C11.3671 20.3972 11.2286 20.0629 11.2286 19.7143V13.1429C11.2286 12.7943 11.3671 12.46 11.6136 12.2136C11.8601 11.9671 12.1944 11.8286 12.5429 11.8286Z" fill="#5A5A5A"/>
<path d="M12.5429 18.4H17.8001C18.6762 18.4 19.1143 18.8381 19.1143 19.7143C19.1143 20.5905 18.6762 21.0286 17.8001 21.0286H12.5429C11.6667 21.0286 11.2286 20.5905 11.2286 19.7143C11.2286 18.8381 11.6667 18.4 12.5429 18.4ZM17.8001 7.88572V2.62857H9.91434V7.88572H7.28577V0H20.4286V7.88572H17.8001ZM9.91434 28.9143V34.1714H17.8001V28.9143H20.4286V36.8H7.28577V28.9143H9.91434Z" fill="#5A5A5A"/>
</svg>
